<svg width="32" height="32" viewBox="0 0 32 32" fill="none" xmlns="http://www.w3.org/2000/svg">
<path fill-rule="evenodd" clip-rule="evenodd" d="M25.8878 4.5H6.11221C4.11729 4.5 2.5 6.11729 2.5 8.11221V19.849C2.5 21.8439 4.11729 23.4612 6.11221 23.4612H13.0963L15.4727 29.0588C15.4727 29.0588 15.6367 29.5432 16.0315 29.5432C16.4282 29.5432 16.5903 29.0588 16.5903 29.0588L18.9666 23.4612H25.8878C27.8827 23.4612 29.5 21.8439 29.5 19.849V8.11221C29.5 6.11729 27.8827 4.5 25.8878 4.5ZM10.9832 14.8751C10.9717 17.0207 8.75366 17.0817 8.75366 17.0817C7.89542 17.0817 7.411 16.5133 7.411 16.5133V16.9005H5.79561V10.2368C5.89669 10.2521 7.411 10.233 7.411 10.233V12.781C7.79053 12.1325 8.88907 12.144 8.88907 12.144C11.2807 12.3671 10.9812 14.8751 10.9812 14.8751H10.9832ZM5.79561 10.233C5.78798 10.2349 5.79561 10.2368 5.79561 10.2368V10.233ZM13.8268 12.35V16.912H12.2457V12.3957C12.2457 11.7816 11.4828 11.61 11.4828 11.61V10.0175C14.0079 10.1205 13.8268 12.35 13.8268 12.35ZM17.5744 17.0855C16.1097 17.0855 14.9234 15.9927 14.9234 14.6462C14.9234 13.2997 16.1097 12.2069 17.5744 12.2069C19.0391 12.2069 20.2254 13.2997 20.2254 14.6462C20.2254 15.9927 19.0391 17.0855 17.5744 17.0855ZM26.2368 17.0855C26.2368 17.0855 26.2597 19.4027 23.9043 19.4027H23.1872V17.9018H23.6201C23.6201 17.9018 24.61 17.9933 24.5985 16.4676C24.5985 16.4676 24.4059 17.0855 23.0175 17.0855C23.0175 17.0855 21.0493 16.9444 21.0493 15.0238V14.2953C21.0493 14.2953 21.095 12.3042 23.2559 12.1459C23.2559 12.1459 24.1084 12.0544 24.6329 12.76V12.2718H26.2368V17.0855ZM16.5731 14.6443C16.5731 14.0913 17.0213 13.6431 17.5744 13.6431C18.1275 13.6431 18.5757 14.0913 18.5757 14.6443C18.5757 15.1974 18.1275 15.6456 17.5744 15.6456C17.0213 15.6456 16.5731 15.1974 16.5731 14.6443ZM7.46249 14.669C7.46249 14.156 7.87826 13.7402 8.3913 13.7402C8.90433 13.7402 9.32009 14.1541 9.32009 14.669C9.32009 15.184 8.90433 15.5997 8.3913 15.5997C7.87826 15.5997 7.46249 15.1821 7.46249 14.669ZM22.7448 14.6444C22.7448 14.1047 23.1834 13.666 23.7231 13.666C24.2629 13.666 24.7015 14.1047 24.7015 14.6444C24.7015 15.1841 24.2629 15.6228 23.7231 15.6228C23.1834 15.6228 22.7448 15.1841 22.7448 14.6444Z" fill="#1F2937"/>
</svg>
