<?xml version="1.0" encoding="utf-8"?>
<!-- Generator: Adobe Illustrator 27.4.1, SVG Export Plug-In . SVG Version: 6.00 Build 0)  -->
<svg version="1.1" id="Layer_1" xmlns="http://www.w3.org/2000/svg" xmlns:xlink="http://www.w3.org/1999/xlink" x="0px" y="0px"
	 viewBox="0 0 136 33" style="enable-background:new 0 0 136 33;" xml:space="preserve">
<style type="text/css">
	.st0{fill:#FFFFFF;}
</style>
<path class="st0" d="M94.1,0c-9.2,0-14.5,7-14.5,16.5C79.6,26,84.9,33,94.1,33c9.2,0,14.5-7,14.5-16.5S103.4,0,94.1,0z M94.1,27.4
	c-5.9,0-8.1-5.4-8.1-10.9s2.3-11,8.1-11s8.1,5.4,8.1,11C102.3,22,100,27.4,94.1,27.4z"/>
<path class="st0" d="M0,0.9h23.1v5.6H6.4v6.9H22v5.4H6.4v7.7h16.7v5.6H0V0.9z"/>
<path class="st0" d="M25.9,32.1h6.4v-9.3h5.8c7.9,0,13.2-3.9,13.2-10.9c0-7-5.3-10.9-13.2-10.9H25.9L25.9,32.1L25.9,32.1z
	 M38.1,17.2h-5.8V6.5h5.8c4,0,6.7,1.8,6.7,5.4C44.8,15.4,42.1,17.2,38.1,17.2L38.1,17.2z"/>
<path class="st0" d="M117.7,0.9h-6.6v31.1h6.3V19.5c0-3.4-0.1-6.5-0.2-9.2c0.7,1.6,3,6.2,4,8l8.2,13.8h6.6V0.9h-6.3v12.3
	c0,3.4,0.1,6.8,0.2,9.5c-0.7-1.6-3-6.2-4-8L117.7,0.9z"/>
<path class="st0" d="M58.5,21.8c0,4.2,3.5,5.8,7.1,5.8c2.4,0,6.3-0.7,6.3-3.9c0-3.4-4.8-4-9.4-5.3c-4.8-1.3-9.5-3.1-9.5-8.9
	c0-6.4,6-9.5,11.7-9.5c6.5,0,12.5,2.9,12.5,10.1h-6.4c-0.2-3.8-3.1-4.8-6.4-4.8c-2.2,0-4.9,0.9-4.9,3.6c0,2.4,1.6,2.8,9.4,4.8
	c2.3,0.6,9.4,2,9.4,9.1c0,5.8-4.5,10.1-13,10.1c-6.9,0-13.4-3.4-13.3-11.2H58.5L58.5,21.8z"/>
</svg>
