<svg width="136" height="33" viewBox="0 0 136 33" fill="none" xmlns="http://www.w3.org/2000/svg">
<path d="M94.1435 0C84.9268 0 79.606 6.96264 79.606 16.4976C79.606 26.0325 84.9268 32.9952 94.1435 32.9952C103.36 32.9952 108.681 26.0374 108.681 16.4976C108.681 6.9578 103.36 0 94.1435 0ZM94.1435 27.4492C88.2901 27.4492 86.0303 22.0193 86.0303 16.5024C86.0303 10.9855 88.2901 5.55077 94.1435 5.55077C99.9969 5.55077 102.257 10.9807 102.257 16.5024C102.257 22.0242 99.9969 27.4492 94.1435 27.4492Z" fill="#10218B"/>
<path d="M0 0.92334H23.1017V6.47411H6.42913V13.3836H21.9742V18.7989H6.42913V26.5207H23.1017V32.0763H0V0.92334Z" fill="#10218B"/>
<path d="M25.8556 32.0763H32.28V22.7299H38.0998C45.9634 22.7299 51.2507 18.8328 51.2507 11.8266C51.2507 4.82048 45.9682 0.92334 38.0998 0.92334H25.8508V32.0715L25.8556 32.0763ZM38.1046 17.184H32.2848V6.47411H38.1094C42.1491 6.47411 44.8359 8.24861 44.8359 11.8266C44.8359 15.4047 42.1491 17.1792 38.1094 17.1792L38.1046 17.184Z" fill="#10218B"/>
<path d="M117.711 0.92334H111.109V32.0715H117.404V19.4517C117.404 16.0042 117.279 12.9339 117.164 10.231C117.907 11.788 120.158 16.4732 121.208 18.2332L129.403 32.0715H136V0.92334H129.705V13.2288C129.705 16.6763 129.83 20.0609 129.945 22.7686C129.201 21.2117 126.951 16.5264 125.901 14.7664L117.711 0.92334Z" fill="#10218B"/>
<path d="M58.5482 21.768C58.5482 25.9552 62.0027 27.5847 65.6778 27.5847C68.0815 27.5847 71.9774 26.8787 71.9774 23.6633C71.9774 20.2691 67.2131 19.6308 62.6216 18.3979C57.8045 17.1165 53.1698 15.2888 53.1698 9.52049C53.1698 3.08972 59.2055 0.00488281 64.843 0.00488281C71.3585 0.00488281 77.3462 2.87214 77.3462 10.1394H70.9219C70.7012 6.34862 67.8177 5.38159 64.5407 5.38159C62.3529 5.38159 59.5941 6.3051 59.5941 8.94994C59.5941 11.3724 61.163 11.7495 68.9931 13.7754C71.2673 14.346 78.3969 15.7337 78.3969 22.8704C78.3969 28.6436 73.8965 32.9614 65.4091 32.9614C58.5002 32.9614 52.0327 29.5236 52.1191 21.768H58.5434H58.5482Z" fill="#10218B"/>
</svg>
