<?xml version="1.0" encoding="utf-8"?>
<!-- Generator: Adobe Illustrator 27.4.1, SVG Export Plug-In . SVG Version: 6.00 Build 0)  -->
<svg version="1.1" id="Layer_1" xmlns="http://www.w3.org/2000/svg" xmlns:xlink="http://www.w3.org/1999/xlink" x="0px" y="0px"
	 viewBox="0 0 222 17" style="enable-background:new 0 0 222 17;" xml:space="preserve">
<style type="text/css">
	.st0{fill-rule:evenodd;clip-rule:evenodd;fill:#FFFFFF;}
</style>
<path class="st0" d="M92.4,15.9c0.6-0.2,1.1-0.6,1.5-1.1c1.3-1.4,1.3-3.5,1.3-6.5v0V8.1V7.9c0-3,0-5.2-1.3-6.5
	c-0.4-0.5-0.9-0.8-1.5-1.1C91.8,0.1,91.1,0,90.5,0c-0.6,0-1.3,0.1-1.9,0.3c-0.6,0.2-1.1,0.6-1.5,1.1c-1.3,1.3-1.3,3.6-1.3,6.8v0.2v0
	c0,3,0,5.2,1.3,6.5c0.4,0.5,0.9,0.8,1.5,1.1c0.6,0.2,1.2,0.4,1.9,0.3C91.1,16.3,91.8,16.2,92.4,15.9z M91.2,2.4
	c0.2,0.1,0.4,0.3,0.6,0.5v0c0.5,0.7,0.6,2.4,0.6,5.3c0,2.9-0.1,4.5-0.6,5.2c-0.1,0.2-0.3,0.4-0.6,0.5C91,13.9,90.7,14,90.5,14
	c-0.3,0-0.5,0-0.8-0.1c-0.2-0.1-0.4-0.3-0.6-0.5c-0.5-0.7-0.6-2.3-0.6-5.2c0-2.9,0.1-4.5,0.6-5.2c0.1-0.2,0.3-0.4,0.6-0.5
	c0.2-0.1,0.5-0.2,0.8-0.1C90.7,2.3,91,2.3,91.2,2.4z M63.8,16.2c1.3,0.1,2.5-0.3,3.4-1.1c0.5-0.5,0.8-1,1-1.6
	c0.2-0.6,0.3-1.2,0.2-1.9c0-2.7-0.6-3.7-2.7-4.4l-2.1-0.7c-1.3-0.4-1.5-0.8-1.5-2.1c-0.1-0.6,0.1-1.1,0.5-1.6
	c0.2-0.1,0.3-0.3,0.5-0.3s0.4-0.1,0.6-0.1c0.2,0,0.5,0,0.7,0.1c0.2,0.1,0.4,0.2,0.6,0.4c0.3,0.5,0.5,1.1,0.4,1.7h2.8
	c0.1-0.6,0-1.2-0.2-1.8S67.4,1.5,67,1c-0.4-0.3-0.9-0.6-1.5-0.8c-0.5-0.2-1.1-0.2-1.7-0.2c-1.1,0-2.2,0.3-3,1
	c-0.5,0.4-0.9,1-1.1,1.5c-0.2,0.6-0.4,1.2-0.3,1.8c0,2.4,0.7,3.3,2.5,4l2.1,0.8c1.4,0.5,1.7,0.9,1.7,2.6c0.1,0.6-0.1,1.2-0.5,1.7
	c-0.2,0.2-0.4,0.3-0.6,0.4c-0.2,0.1-0.5,0.1-0.7,0.1c-0.2,0-0.5,0-0.7-0.1s-0.4-0.2-0.6-0.3c-0.4-0.5-0.6-1.1-0.5-1.8h-2.8
	c-0.1,0.6,0,1.2,0.2,1.8c0.2,0.6,0.5,1.1,1,1.6c0.5,0.4,1,0.7,1.6,0.8C62.5,16.2,63.1,16.2,63.8,16.2z M27.1,16V2.4h3.1V0.2h-8.7
	v2.2h2.9V16H27.1z M7.9,14.7c-0.4,0.4-0.9,0.8-1.5,1S5.1,16.1,4.5,16H0V0.2h4.5c0.6,0,1.3,0.1,1.9,0.3C7,0.7,7.5,1.1,8,1.5
	C9.2,2.8,9.2,5,9.2,8l0,0.1C9.2,11.2,9.2,13.4,7.9,14.7z M5.8,3.1C5.7,2.9,5.5,2.7,5.2,2.6C5,2.5,4.7,2.4,4.4,2.5H2.8v11.3h1.6
	c0.3,0,0.6,0,0.8-0.2c0.2-0.1,0.5-0.3,0.6-0.5c0.5-0.7,0.6-2.3,0.6-5C6.4,5.3,6.3,3.8,5.8,3.1z M12.2,16V0.2h7.4v2.2h-4.6v4.5h4v2.2
	h-4v4.6h4.6V16L12.2,16z M38.7,16L38,12.9h-4.1L33.2,16h-2.9l4.3-15.8h2.7L41.6,16H38.7z M36,4l-1.5,6.6h3.1L36,4z M43.7,0.2V16h2.8
	V0.2H43.7z M49.9,16V0.2h2.8v13.6h4.6V16H49.9z M78.9,2.4v4.5h4v2.2h-4V16h-2.8V0.2h7.4v2.2H78.9z M104.8,16l-2.3-6.5H101V16h-2.8
	V0.2h4.4c3.2,0,4.5,1.4,4.5,4.7c0,2-0.4,3.4-2.1,4.2l2.6,6.9L104.8,16z M102.6,2.5h-1.7v4.8h1.7c1.5,0,1.7-1.1,1.7-2.4
	C104.4,3.6,104.1,2.4,102.6,2.5L102.6,2.5z M120.1,16V2.4h2.9V0.2h-8.7v2.2h2.9V16H120.1z M132.8,14.9c-0.4,0.5-0.9,0.8-1.5,1.1
	c-0.6,0.2-1.2,0.4-1.9,0.3c-0.7,0-1.3-0.1-1.9-0.3c-0.6-0.2-1.1-0.6-1.5-1.1c-1.3-1.4-1.3-3.5-1.3-6.5v0V8.1c0-3.1,0-5.4,1.3-6.8
	c0.4-0.5,0.9-0.8,1.5-1.1c0.6-0.2,1.2-0.4,1.9-0.3c0.6,0,1.3,0.1,1.9,0.3c0.6,0.2,1.1,0.6,1.5,1.1c1.3,1.4,1.3,3.6,1.3,6.6v0.1v0.1
	C134.1,11.3,134.1,13.5,132.8,14.9z M130.8,2.9c-0.1-0.2-0.3-0.4-0.6-0.5c-0.2-0.1-0.5-0.2-0.8-0.1c-0.3,0-0.5,0-0.8,0.1
	c-0.2,0.1-0.4,0.3-0.6,0.5c-0.5,0.7-0.6,2.4-0.6,5.2c0,2.9,0.1,4.5,0.6,5.2c0.1,0.2,0.3,0.4,0.6,0.5c0.2,0.1,0.5,0.2,0.8,0.1
	c0.3,0,0.5,0,0.8-0.1c0.2-0.1,0.4-0.3,0.6-0.5c0.5-0.7,0.6-2.3,0.6-5.2C131.3,5.3,131.3,3.6,130.8,2.9L130.8,2.9z M146.2,6.2V16
	l2.7,0V0.2h-2.5L143,8.5l-3.4-8.3h-2.5V16h2.8V6.3l2.4,6.4h1.5L146.2,6.2z M160,14.9c-0.4,0.5-0.9,0.8-1.5,1.1
	c-0.6,0.2-1.2,0.4-1.9,0.3c-0.7,0-1.3-0.1-1.9-0.3c-0.6-0.2-1.1-0.6-1.5-1.1c-1.3-1.4-1.3-3.5-1.3-6.5V8.1c0-3.1,0-5.4,1.3-6.8
	c0.4-0.5,0.9-0.8,1.5-1.1c0.6-0.2,1.2-0.4,1.9-0.3c0.6,0,1.3,0.1,1.9,0.3c0.6,0.2,1.1,0.6,1.5,1.1c1.3,1.4,1.3,3.6,1.3,6.6v0.1v0.1
	C161.3,11.3,161.3,13.5,160,14.9z M157.9,2.9c-0.1-0.2-0.3-0.4-0.6-0.5c-0.2-0.1-0.5-0.2-0.8-0.1c-0.3,0-0.5,0-0.8,0.1
	c-0.2,0.1-0.4,0.3-0.6,0.5c-0.5,0.7-0.6,2.4-0.6,5.2c0,2.9,0.1,4.5,0.6,5.2c0.1,0.2,0.3,0.4,0.6,0.5c0.2,0.1,0.5,0.2,0.8,0.1
	c0.3,0,0.5,0,0.8-0.1c0.2-0.1,0.4-0.3,0.6-0.5c0.5-0.7,0.6-2.3,0.6-5.2C158.5,5.3,158.5,3.6,157.9,2.9L157.9,2.9z M168.6,9.5
	l2.3,6.5l2.9,0L171.2,9c1.6-0.8,2.1-2.2,2.1-4.2c0-3.3-1.3-4.7-4.5-4.7h-4.4V16h2.8V9.5H168.6z M167.1,2.4h1.7
	c1.5,0,1.7,1.1,1.7,2.4c0,1.3-0.2,2.4-1.7,2.4h-1.7V2.4z M183.2,16l-2.3-6.5h-1.5V16h-2.8V0.2h4.4c3.2,0,4.5,1.4,4.5,4.7
	c0,2-0.4,3.4-2.1,4.2l2.6,6.9L183.2,16z M181,2.4h-1.7v4.8h1.7c1.5,0,1.7-1.1,1.7-2.4C182.7,3.5,182.5,2.4,181,2.4z M194.8,15.9
	c0.6-0.2,1.1-0.6,1.5-1c1.3-1.4,1.4-3.6,1.4-6.7V8c0-3.1,0-5.3-1.3-6.6c-0.4-0.5-0.9-0.8-1.5-1.1C194.2,0.1,193.6,0,193,0
	c-0.6,0-1.3,0.1-1.9,0.3s-1.1,0.6-1.5,1c-1.3,1.3-1.3,3.6-1.3,6.8v0.1c0,3.1,0,5.3,1.3,6.6c0.4,0.5,0.9,0.8,1.5,1.1
	c0.6,0.2,1.2,0.4,1.9,0.3C193.6,16.3,194.2,16.2,194.8,15.9z M193.6,2.4c0.2,0.1,0.4,0.3,0.6,0.5v0c0.5,0.7,0.6,2.4,0.6,5.3
	c0,2.9-0.1,4.5-0.6,5.2c-0.1,0.2-0.3,0.4-0.6,0.5c-0.2,0.1-0.5,0.2-0.8,0.1c-0.3,0-0.5,0-0.7-0.1c-0.2-0.1-0.4-0.3-0.6-0.5
	c-0.5-0.7-0.6-2.3-0.6-5.2c0-2.9,0.1-4.5,0.6-5.2c0.1-0.2,0.3-0.4,0.6-0.5s0.5-0.2,0.7-0.1C193.1,2.3,193.4,2.3,193.6,2.4z
	 M213.5,16h-2.9l-2.5-12l-2.5,12h-2.9l-3.3-15.8h3.1l1.7,12l2.4-12h3.1l2.4,12l1.7-12h3.1L213.5,16z M218,13.2V16h3.1v-2.8H218z"/>
</svg>
