<svg width="222" height="17" viewBox="0 0 222 17" fill="none" xmlns="http://www.w3.org/2000/svg">
<path fill-rule="evenodd" clip-rule="evenodd" d="M92.3748 15.9418C92.9674 15.701 93.4891 15.339 93.8981 14.8847C95.1812 13.5291 95.1807 11.352 95.18 8.35332V8.35326L95.18 8.14398L95.18 7.9347C95.1807 4.93543 95.1812 2.74501 93.8981 1.38936C93.4867 0.937582 92.9646 0.577331 92.3725 0.336732C91.7805 0.0961334 91.1345 -0.0183007 90.485 0.00237755C89.8356 -0.0183007 89.1896 0.0961334 88.5976 0.336732C88.0055 0.577331 87.4834 0.937582 87.072 1.38936C85.7902 2.72087 85.7901 5.03714 85.7901 8.14398L85.7901 8.35326V8.35332C85.7894 11.352 85.7889 13.5291 87.072 14.8847C87.481 15.339 88.0027 15.701 88.5954 15.9418C89.188 16.1827 89.8351 16.2956 90.485 16.2717C91.135 16.2956 91.7822 16.1827 92.3748 15.9418ZM91.2428 2.44679C91.4779 2.55113 91.6795 2.70751 91.8287 2.90118V2.88731C92.3383 3.63628 92.4155 5.25905 92.4155 8.14398C92.4155 11.0289 92.3383 12.6239 91.8287 13.3729C91.6813 13.5691 91.4805 13.7282 91.2453 13.8351C91.0101 13.9419 90.7484 13.9929 90.485 13.9832C90.225 13.9994 89.9649 13.9511 89.7334 13.8434C89.5018 13.7358 89.3077 13.573 89.1723 13.3729C88.6627 12.6239 88.5546 11.0289 88.5546 8.14398C88.5546 5.25905 88.6627 3.65015 89.1723 2.90118C89.3084 2.70255 89.5032 2.54167 89.7349 2.43639C89.9666 2.33112 90.2262 2.28556 90.485 2.30478C90.747 2.29357 91.0078 2.34244 91.2428 2.44679ZM63.7519 16.1884C65.0083 16.2488 66.2421 15.8712 67.1959 15.1343C67.6547 14.6608 67.9988 14.1068 68.2062 13.5075C68.4136 12.9081 68.4798 12.2765 68.4005 11.6529C68.4005 8.98992 67.8291 7.99129 65.7287 7.21458L63.6593 6.46561C62.3466 6.02177 62.1149 5.61954 62.1149 4.32965C62.0636 3.77718 62.2334 3.2264 62.5936 2.77622C62.7446 2.62976 62.9291 2.51429 63.1343 2.43769C63.3395 2.36109 63.5607 2.32517 63.7828 2.33239C64.0138 2.32071 64.2447 2.35578 64.4586 2.435C64.6724 2.51422 64.8637 2.63558 65.0183 2.7901C65.3646 3.2962 65.5115 3.89215 65.4353 4.48222H68.1997C68.2682 3.86339 68.1939 3.23852 67.9813 2.64667C67.7687 2.05482 67.4225 1.50871 66.9643 1.04249C66.5326 0.703699 66.0308 0.444764 65.4875 0.280537C64.9442 0.116309 64.3701 0.0500275 63.7983 0.0854815C62.6973 0.0598807 61.6248 0.400731 60.7868 1.04249C60.2943 1.47734 59.9112 2.00194 59.6634 2.58092C59.4157 3.15991 59.309 3.77985 59.3505 4.399C59.3505 6.8401 60.0145 7.70003 61.806 8.36578L63.9064 9.14249C65.2654 9.62793 65.5589 10.0579 65.5589 11.75C65.6438 12.3656 65.4734 12.9877 65.0801 13.4976C64.9143 13.6614 64.7071 13.7872 64.476 13.8644C64.245 13.9416 63.9967 13.9681 63.7519 13.9415C63.5179 13.9553 63.2831 13.9255 63.0625 13.8539C62.8419 13.7823 62.6402 13.6704 62.4701 13.5254C62.0611 13.0111 61.8845 12.3766 61.9759 11.75L59.1961 11.75C59.1124 12.3545 59.1709 12.9681 59.3678 13.551C59.5646 14.1339 59.8954 14.6733 60.3389 15.1343C60.8003 15.5061 61.3402 15.791 61.9264 15.9721C62.5127 16.1531 63.1334 16.2267 63.7519 16.1884ZM27.15 15.9667L27.15 2.40201L30.2079 2.40201V0.168964L21.5285 0.168964V2.40201L24.3856 2.40201L24.3856 15.9667H27.15ZM7.89175 14.7184C7.47043 15.1543 6.94412 15.4982 6.35275 15.7241C5.76138 15.95 5.12049 16.0519 4.4787 16.0222H0L0 0.224463L4.54046 0.224463C5.18226 0.194758 5.82314 0.296717 6.41452 0.522617C7.00589 0.748517 7.53222 1.09243 7.95354 1.52823C9.23566 2.83048 9.23553 5.02687 9.23536 8.02369L9.23535 8.13027C9.23535 11.1816 9.17358 13.4147 7.89175 14.7184ZM5.80686 3.10939C5.6598 2.89705 5.45153 2.72436 5.20413 2.6096C4.95673 2.49485 4.67941 2.44229 4.40148 2.45751L2.76444 2.45751L2.76444 13.7892H4.40148C4.67941 13.8044 4.95673 13.7518 5.20413 13.6371C5.45153 13.5223 5.6598 13.3496 5.80686 13.1373C6.33195 12.4161 6.40917 10.8626 6.40917 8.10254C6.40917 5.34244 6.33195 3.78902 5.80686 3.10939ZM12.154 16.0219L12.154 0.224167L19.5516 0.224167V2.40173L14.9185 2.40173L14.9185 6.89556H18.903V9.12861L14.9185 9.12861V13.7334L19.5516 13.7334V15.9664L12.154 16.0219ZM38.7022 16.0219L37.9763 12.9012H33.8838L33.1888 16.0219L30.2854 16.0219L34.6096 0.224167L37.2968 0.224167L41.6056 16.0219H38.7022ZM35.9532 4.03837L34.4088 10.6543H37.4976L35.9532 4.03837ZM43.6904 0.224167V16.0219H46.4549V0.224167L43.6904 0.224167ZM49.8834 16.0219V0.224167L52.6633 0.224167V13.7889H57.2964V16.0219L49.8834 16.0219ZM78.9176 2.40201V6.89584L82.9021 6.89584V9.12889L78.9176 9.12889V15.9667H76.1532V0.168964L83.5508 0.168964V2.40201L78.9176 2.40201ZM104.801 16.0219L102.5 9.54471H100.956V16.0219L98.1915 16.0219V0.224167L102.639 0.224167C105.852 0.224167 107.133 1.61115 107.133 4.88444C107.133 6.84009 106.686 8.24094 105.079 9.04539L107.705 15.9803L104.801 16.0219ZM102.639 2.45721H100.94V7.29779L102.639 7.29779C104.184 7.29779 104.353 6.1882 104.353 4.88444C104.353 3.58067 104.122 2.40173 102.639 2.40173V2.45721ZM120.106 15.9667V2.40201L123.025 2.40201V0.168964L114.346 0.168964V2.40201L117.28 2.40201V15.9667H120.106ZM132.847 14.8847C132.438 15.339 131.917 15.701 131.324 15.9418C130.731 16.1827 130.084 16.2956 129.434 16.2717C128.784 16.2956 128.137 16.1827 127.544 15.9418C126.952 15.701 126.43 15.339 126.021 14.8847C124.738 13.5291 124.739 11.352 124.739 8.35332V8.35326L124.739 8.14398C124.739 5.03714 124.739 2.72087 126.021 1.38936C126.432 0.937582 126.955 0.577331 127.547 0.336732C128.139 0.0961334 128.785 -0.0183007 129.434 0.00237755C130.084 -0.0183007 130.73 0.0961334 131.322 0.336732C131.914 0.577331 132.436 0.937582 132.847 1.38936C134.129 2.76019 134.129 4.98457 134.129 8.03572V8.14398V8.25224C134.129 11.3031 134.129 13.5139 132.847 14.8847ZM130.762 2.90118C130.622 2.70253 130.425 2.54198 130.191 2.43687C129.957 2.33176 129.695 2.28608 129.434 2.30478C129.175 2.28394 128.915 2.32878 128.683 2.43421C128.451 2.53964 128.256 2.70143 128.121 2.90118C127.596 3.65015 127.504 5.25905 127.504 8.14398C127.504 11.0289 127.596 12.6239 128.121 13.3729C128.256 13.5741 128.449 13.7378 128.681 13.8456C128.913 13.9534 129.174 14.001 129.434 13.9832C129.696 13.9989 129.958 13.9505 130.192 13.843C130.426 13.7355 130.623 13.5731 130.762 13.3729C131.287 12.6239 131.349 11.0289 131.349 8.14398C131.349 5.25905 131.287 3.63628 130.762 2.88731V2.90118ZM146.16 6.17464V16.0222L148.909 15.9945V0.196735L146.391 0.196735L143.009 8.51865L139.596 0.196735L137.094 0.196735V15.9945L139.859 15.9945V6.2856L142.221 12.6519H143.766L146.16 6.17464ZM160.028 14.8847C159.619 15.339 159.097 15.701 158.505 15.9418C157.912 16.1827 157.265 16.2956 156.615 16.2717C155.965 16.2956 155.318 16.1827 154.725 15.9418C154.133 15.701 153.611 15.339 153.202 14.8847C151.919 13.5291 151.919 11.3519 151.92 8.35321L151.92 8.14398C151.92 5.03714 151.92 2.72087 153.202 1.38936C153.613 0.937582 154.135 0.577331 154.727 0.336732C155.319 0.0961334 155.965 -0.0183007 156.615 0.00237755C157.264 -0.0183007 157.91 0.0961334 158.502 0.336732C159.094 0.577331 159.617 0.937582 160.028 1.38936C161.31 2.76019 161.31 4.98457 161.31 8.03572V8.14398V8.25224C161.31 11.3031 161.31 13.5139 160.028 14.8847ZM157.943 2.90118C157.803 2.70253 157.606 2.54198 157.371 2.43687C157.137 2.33176 156.876 2.28608 156.615 2.30478C156.356 2.28394 156.096 2.32878 155.863 2.43421C155.631 2.53964 155.437 2.70143 155.302 2.90118C154.777 3.65015 154.684 5.25905 154.684 8.14398C154.684 11.0289 154.777 12.6239 155.302 13.3729C155.436 13.5741 155.63 13.7378 155.862 13.8456C156.094 13.9534 156.355 14.001 156.615 13.9832C156.877 13.9989 157.139 13.9505 157.373 13.843C157.607 13.7355 157.804 13.5731 157.943 13.3729C158.468 12.6239 158.53 11.0289 158.53 8.14398C158.53 5.25905 158.468 3.63628 157.943 2.88731V2.90118ZM168.615 9.54471L170.916 16.0219L173.82 15.9803L171.21 9.04539C172.816 8.24094 173.264 6.84009 173.264 4.88444C173.264 1.61115 171.966 0.224167 168.754 0.224167L164.306 0.224167V16.0219L167.071 16.0219V9.54471H168.615ZM167.055 2.40173L168.769 2.40173C170.252 2.40173 170.468 3.52519 170.468 4.82896C170.468 6.13272 170.314 7.24231 168.769 7.24231L167.055 7.24231V2.40173ZM183.194 16.0219L180.893 9.54471H179.348V16.0219H176.568V0.224167L181.016 0.224167C184.244 0.224167 185.526 1.61115 185.526 4.88444C185.526 6.84009 185.078 8.24094 183.472 9.04539L186.097 15.9803L183.194 16.0219ZM181.047 2.40173L179.348 2.40173V7.24231L181.047 7.24231C182.592 7.24231 182.746 6.13272 182.746 4.82896C182.746 3.52519 182.53 2.40173 181.047 2.40173ZM194.801 15.9262C195.38 15.6857 195.889 15.3295 196.29 14.8847C197.587 13.4977 197.664 11.2508 197.664 8.14398V8.03676C197.665 4.98507 197.665 2.76034 196.367 1.38936C195.956 0.937582 195.434 0.577331 194.842 0.336732C194.249 0.0961334 193.603 -0.0183007 192.954 0.00237755C192.307 -0.0161443 191.664 0.0993332 191.075 0.339854C190.486 0.580375 189.966 0.939482 189.556 1.38936C188.259 2.72087 188.259 5.03714 188.259 8.14398V8.2512C188.259 11.3026 188.259 13.5137 189.556 14.8847C189.964 15.3371 190.483 15.6979 191.073 15.9387C191.663 16.1794 192.307 16.2934 192.954 16.2717C193.591 16.2848 194.223 16.1666 194.801 15.9262ZM193.641 2.43522C193.878 2.54031 194.078 2.70141 194.22 2.90118V2.88731C194.745 3.63628 194.807 5.25905 194.807 8.14398C194.807 11.0289 194.745 12.6239 194.22 13.3729C194.08 13.5752 193.88 13.7391 193.644 13.8467C193.407 13.9543 193.141 14.0015 192.877 13.9832C192.619 14 192.361 13.9518 192.131 13.8439C191.902 13.7361 191.711 13.573 191.579 13.3729C191.054 12.6239 190.962 11.0289 190.962 8.14398C190.962 5.25905 191.054 3.65015 191.579 2.90118C191.713 2.70367 191.905 2.54333 192.134 2.43803C192.363 2.33273 192.62 2.28661 192.877 2.30478C193.14 2.28503 193.404 2.33013 193.641 2.43522ZM213.541 16.0219H210.653L208.136 4.01064L205.634 16.0219H202.746L199.41 0.224167L202.499 0.224167L204.228 12.2077L206.637 0.224167L209.726 0.224167L212.166 12.2077L213.881 0.224167L216.969 0.224167L213.541 16.0219ZM217.957 13.2481V16.023H221.046V13.2481H217.957Z" fill="#10218B"/>
</svg>
